<?xml version="1.0" encoding="utf-8"?>
<!-- Generator: Adobe Illustrator 23.0.2, SVG Export Plug-In . SVG Version: 6.00 Build 0)  -->
<svg version="1.1" id="Calque_1" xmlns="http://www.w3.org/2000/svg" xmlns:xlink="http://www.w3.org/1999/xlink" x="0px" y="0px"
	 viewBox="0 0 24 24" style="enable-background:new 0 0 24 24;" xml:space="preserve">
<style type="text/css">
	.st0{fill:none;}
	.st1{fill:#FFFFFF;}
	.st2{fill:#303030;}
</style>
<path class="st0" d="M0,0h24v24H0V0z"/>
<g>
	<path class="st1" d="M14,2H6C4.9,2,4,2.9,4,4v16c0,1.1,0.9,2,2,2h12c1.1,0,2-0.9,2-2V8L14,2z M13,9V3.5L18.5,9H13z"/>
	<polygon class="st1" points="10.7,15.5 11.7,15.5 11.2,13.9 	"/>
</g>
<path class="st2" d="M14,11.5c-1.1-0.9-1-2.3-1-2.3l0,0h-0.4l-1.1,7c-0.2-0.3-0.7-0.5-1.2-0.5c-1,0-1.9,0.6-2.1,1.5
	c-0.2,0.8,0.4,1.4,1.4,1.4c1.7,0,2.3-1.5,2.3-1.5l0.9-6.5c0.1,0.4,0.4,0.8,1,1.3c1.1,1.1-0.2,2.2-0.2,2.2
	C14.5,13.7,15.1,12.4,14,11.5z"/>
</svg>
