<svg width="896" height="1024" xmlns="http://www.w3.org/2000/svg">

 <g>
  <title>background</title>
  <rect fill="none" id="canvas_background" height="402" width="582" y="-1" x="-1"/>
 </g>
 <g>
  <title>Layer 1</title>
  <path fill="#ffffff" id="svg_1" d="m480,957.148768l320,0l0,-320l-320,0l0,320zm-384,0l320,0l0,-320l-320,0l0,320zm383.75,-583.812c31.469,-3.5 66.875,-7.406 87.375,-9.719c83.875,-9.344 159.375,-84.875 168.687,-168.719c9.312,-83.75 -51,-144.125 -134.688,-134.719c-65.436,7.313 -125.28,54.969 -153.124,115.344c-27.844,-60.375 -87.688,-108.031 -153.094,-115.406c-83.718,-9.344 -144.125,51.031 -134.718,134.781c9.344,83.844 84.875,159.312 168.656,168.719c20.531,2.312 55.938,6.281 87.406,9.719c-0.5,4.218 -0.25,7.812 -0.25,7.812l64,0c0,0 0.25,-3.594 -0.25,-7.812zm107.625,-235.5c45.25,-5.062 78,27.562 72.875,72.875c-5,45.312 -45.875,86.156 -91.125,91.219c-45.375,5.031 -78,-27.594 -72.938,-72.906c5.062,-45.312 45.938,-86.157 91.188,-91.188zm-260.469,164.093c-45.25,-5.062 -86.062,-45.906 -91.125,-91.219c-5.063,-45.313 27.594,-77.938 72.812,-72.875c45.312,5.031 86.156,45.875 91.222,91.188c5.06,45.313 -27.596,77.937 -72.909,72.906zm153.094,79.219l0,192l384,0l0,-192l-384,0zm-448,192l384,0l0,-192l-384,0l0,192z"/>
 </g>
</svg>