<?xml version="1.0" encoding="utf-8"?>
<!-- Generator: Adobe Illustrator 24.1.2, SVG Export Plug-In . SVG Version: 6.00 Build 0)  -->
<svg version="1.1" id="Warstwa_1" xmlns:serif="http://www.serif.com/"
	 xmlns="http://www.w3.org/2000/svg" xmlns:xlink="http://www.w3.org/1999/xlink" x="0px" y="0px" viewBox="0 0 500 500"
	 style="enable-background:new 0 0 500 500;" xml:space="preserve">
<style type="text/css">
	.st0{fill-rule:evenodd;clip-rule:evenodd;}
</style>
<path class="st0" d="M424.2,500H75.8C33.9,500,0,466.1,0,424.2V75.8C0,33.9,33.9,0,75.8,0h348.4C466.1,0,500,33.9,500,75.8v348.4
	C500,466.1,466.1,500,424.2,500z M500,156.9V77c0-42.5-34.5-77-77-77h-84L500,156.9z M500,201v-44.1H339V201H500z M339,0h-44.1
	v175.6c0,14,11.4,25.4,25.4,25.4H339V0z M398.7,254.3c-29.2,0-52.9,23.7-52.9,52.9c0,29.2,23.7,52.9,52.9,52.9
	c29.2,0,52.9-23.7,52.9-52.9C451.6,278,427.9,254.3,398.7,254.3z M101.3,254.3c-29.2,0-52.9,23.7-52.9,52.9
	c0,29.2,23.7,52.9,52.9,52.9s52.9-23.7,52.9-52.9C154.2,278,130.5,254.3,101.3,254.3z M336,279.8h-28.7c0,28.5-28.8,51.6-57.3,51.6
	l0,0l0,0c-28.5,0-57.3-23.1-57.3-51.6H164v0c0,44.3,41.7,80.3,86,80.3l0,0l0,0C294.3,360.1,336,324.2,336,279.8L336,279.8z"/>
</svg>
