<svg width="24" height="24" xmlns="http://www.w3.org/2000/svg">

 <g>
  <title>background</title>
  <rect fill="none" id="canvas_background" height="402" width="582" y="-1" x="-1"/>
 </g>
 <g>
  <title>Layer 1</title>
  <path fill="#ffffff" id="svg_1" fill-rule="evenodd" d="m23.450602,14.604134l-8.846467,0l0,8.846467c0,0.28725 -0.23313,0.52038 -0.52038,0.52038l-4.163043,0c-0.28725,0 -0.52038,-0.23313 -0.52038,-0.52038l0,-8.846467l-8.846467,0c-0.28725,0 -0.52038,-0.23313 -0.52038,-0.52038l0,-4.163043c0,-0.28725 0.23313,-0.52038 0.52038,-0.52038l8.846467,0l0,-8.846467c0,-0.28725 0.23313,-0.52038 0.52038,-0.52038l4.163043,0c0.28725,0 0.52038,0.23313 0.52038,0.52038l0,8.846467l8.846467,0c0.28725,0 0.52038,0.23313 0.52038,0.52038l0,4.163043c0,0.28725 -0.23313,0.52038 -0.52038,0.52038z" clip-rule="evenodd"/>
 </g>
</svg>